<svg width="24" height="25" viewBox="0 0 24 25" fill="none" xmlns="http://www.w3.org/2000/svg">
<path d="M11.0277 9.17311L11.1726 9.16506L11.2906 9.08075L16.7094 5.21016C17.0403 4.97378 17.5 5.21034 17.5 5.61703V18.7307C17.5 19.1373 17.0403 19.3739 16.7094 19.1375L11.2906 15.267L11.1742 15.1839L11.0314 15.1749L8.53144 15.0174L8.53144 15.0173L8.52248 15.0169L5.02662 14.8596L3.90768 14.7906C3.11661 14.7418 2.5 14.086 2.5 13.2934V11.0659C2.5 10.2698 3.12192 9.61232 3.91679 9.56816L11.0277 9.17311Z" fill="black" fill-opacity="0.3" stroke="black"/>
<path d="M5.5 15.1738V18.6738C5.5 19.2261 5.94772 19.6738 6.5 19.6738H7.5C8.05228 19.6738 8.5 19.2261 8.5 18.6738V15.1738" stroke="black" stroke-linecap="round"/>
<path d="M7 14.9238H7.13393L8.5 15.1102V19.1738C8.5 19.45 8.27614 19.6738 8 19.6738H6C5.72386 19.6738 5.5 19.45 5.5 19.1738V15.0642L6.06155 14.9238H7Z" fill="black" fill-opacity="0.3" stroke="black"/>
<path d="M19.5 6.67383L21.5 4.67383" stroke="black" stroke-linecap="round"/>
<path d="M19.5 12.1738H21.5" stroke="black" stroke-linecap="round"/>
<path d="M19.5 17.6738L21.5 19.6738" stroke="black" stroke-linecap="round"/>
</svg>
