<svg width="25" height="25" viewBox="0 0 25 25" fill="none" xmlns="http://www.w3.org/2000/svg">
<g clip-path="url(#clip0_5619_2169)">
<path d="M19.4096 17.7861C18.8041 18.4496 18.0943 19.0162 17.304 19.4616C15.8975 20.2542 14.2943 20.6298 12.6821 20.5445C11.0699 20.4593 9.51527 19.9166 8.2002 18.98C6.88513 18.0434 5.86399 16.7517 5.25627 15.256C4.64854 13.7602 4.47937 12.1223 4.76854 10.534C5.05771 8.94558 5.79327 7.47241 6.88914 6.28681C7.98502 5.10122 9.39588 4.25225 10.9566 3.83923C11.8336 3.60718 12.7374 3.51814 13.6341 3.5713C13.7995 3.5811 13.9081 3.67386 13.9528 3.87166C14.002 4.08942 13.9443 4.36987 13.7679 4.57221C13.1269 5.30752 12.6304 6.16664 12.314 7.1056C11.7403 8.80791 11.7967 10.6596 12.4729 12.3238C13.1491 13.9881 14.4002 15.3543 15.9986 16.1741C16.8802 16.6263 17.8352 16.8957 18.8074 16.9755C19.075 16.9975 19.3119 17.1583 19.4285 17.3486C19.5344 17.5215 19.5214 17.6637 19.4096 17.7861Z" fill="black" fill-opacity="0.3" stroke="black" stroke-linecap="round" stroke-linejoin="round"/>
</g>
<defs>
<clipPath id="clip0_5619_2169">
<rect width="24" height="24" fill="white" transform="translate(0 0.173828) rotate(-0.415593)"/>
</clipPath>
</defs>
</svg>
