<svg width="26" height="26" viewBox="0 0 26 26" fill="none" xmlns="http://www.w3.org/2000/svg">
<g clip-path="url(#clip0_5426_1531)">
<path d="M19.7205 17.8896C19.9881 17.9115 20.225 18.0723 20.3416 18.2627C20.4475 18.4356 20.4344 18.5778 20.3227 18.7002C19.7172 19.3637 19.0074 19.9303 18.2171 20.3756C16.8106 21.1682 15.2074 21.5439 13.5952 21.4586C11.983 21.3733 10.4284 20.8306 9.11329 19.8941C7.79822 18.9575 6.77708 17.6658 6.16935 16.17C5.56163 14.6743 5.39246 13.0364 5.68163 11.448C5.9708 9.85964 6.70636 8.38647 7.80223 7.20088C8.8981 6.01528 10.309 5.16631 11.8697 4.7533C12.7467 4.52124 13.6505 4.43221 14.5472 4.48536C14.7126 4.49517 14.8212 4.58792 14.8659 4.78572C14.9151 5.00348 14.8574 5.28393 14.681 5.48627C14.04 6.22158 13.5435 7.08071 13.2271 8.01967C12.6534 9.72197 12.7098 11.5736 13.386 13.2379C14.0622 14.9021 15.3133 16.2684 16.9117 17.0882C17.7933 17.5404 18.7483 17.8097 19.7205 17.8896Z" stroke="black" stroke-linecap="round" stroke-linejoin="round"/>
</g>
<defs>
<clipPath id="clip0_5426_1531">
<rect width="24" height="24" fill="white" transform="translate(0.913086 1.08789) rotate(-0.415593)"/>
</clipPath>
</defs>
</svg>
