<svg width="25" height="24" viewBox="0 0 25 24" fill="none" xmlns="http://www.w3.org/2000/svg">
<rect x="2.17334" y="8" width="20" height="8" rx="2" fill="black" fill-opacity="0.3"/>
<mask id="path-2-inside-1_5616_2210" fill="white">
<path fill-rule="evenodd" clip-rule="evenodd" d="M17.6733 16H4.17334C3.06877 16 2.17334 15.1046 2.17334 14V10C2.17334 8.89543 3.06877 8 4.17334 8H17.6733V9H4.17334C3.62106 9 3.17334 9.44772 3.17334 10V14C3.17334 14.5523 3.62106 15 4.17334 15H17.6733V16ZM19.6733 15V16H20.1733C21.2779 16 22.1733 15.1046 22.1733 14V10C22.1733 8.89543 21.2779 8 20.1733 8H19.6733V9H20.1733C20.7256 9 21.1733 9.44772 21.1733 10V14C21.1733 14.5523 20.7256 15 20.1733 15H19.6733Z"/>
</mask>
<path fill-rule="evenodd" clip-rule="evenodd" d="M17.6733 16H4.17334C3.06877 16 2.17334 15.1046 2.17334 14V10C2.17334 8.89543 3.06877 8 4.17334 8H17.6733V9H4.17334C3.62106 9 3.17334 9.44772 3.17334 10V14C3.17334 14.5523 3.62106 15 4.17334 15H17.6733V16ZM19.6733 15V16H20.1733C21.2779 16 22.1733 15.1046 22.1733 14V10C22.1733 8.89543 21.2779 8 20.1733 8H19.6733V9H20.1733C20.7256 9 21.1733 9.44772 21.1733 10V14C21.1733 14.5523 20.7256 15 20.1733 15H19.6733Z" fill="black" fill-opacity="0.3"/>
<path d="M17.6733 16H18.6733V17H17.6733V16ZM17.6733 8V7H18.6733V8H17.6733ZM17.6733 9H18.6733V10H17.6733V9ZM17.6733 15V14H18.6733V15H17.6733ZM19.6733 15H18.6733V14H19.6733V15ZM19.6733 16V17H18.6733V16H19.6733ZM19.6733 8H18.6733V7H19.6733V8ZM19.6733 9V10H18.6733V9H19.6733ZM4.17334 15H17.6733V17H4.17334V15ZM3.17334 14C3.17334 14.5523 3.62106 15 4.17334 15V17C2.51649 17 1.17334 15.6569 1.17334 14H3.17334ZM3.17334 10V14H1.17334V10H3.17334ZM4.17334 9C3.62106 9 3.17334 9.44772 3.17334 10H1.17334C1.17334 8.34315 2.51649 7 4.17334 7V9ZM17.6733 9H4.17334V7H17.6733V9ZM16.6733 9V8H18.6733V9H16.6733ZM17.6733 10H4.17334V8H17.6733V10ZM4.17334 10H2.17334C2.17334 8.89543 3.06877 8 4.17334 8V10ZM4.17334 10V14H2.17334V10H4.17334ZM4.17334 14H4.17334V16C3.06877 16 2.17334 15.1046 2.17334 14H4.17334ZM4.17334 14H17.6733V16H4.17334V14ZM16.6733 16V15H18.6733V16H16.6733ZM20.6733 15V16H18.6733V15H20.6733ZM19.6733 15H20.1733V17H19.6733V15ZM20.1733 15C20.7256 15 21.1733 14.5523 21.1733 14H23.1733C23.1733 15.6569 21.8302 17 20.1733 17V15ZM21.1733 14V10H23.1733V14H21.1733ZM21.1733 10C21.1733 9.44772 20.7256 9 20.1733 9V7C21.8302 7 23.1733 8.34315 23.1733 10H21.1733ZM20.1733 9H19.6733V7H20.1733V9ZM20.6733 8V9H18.6733V8H20.6733ZM20.1733 10H19.6733V8H20.1733V10ZM20.1733 10V8C21.2779 8 22.1733 8.89543 22.1733 10H20.1733ZM20.1733 14V10H22.1733V14H20.1733ZM20.1733 14H22.1733C22.1733 15.1046 21.2779 16 20.1733 16V14ZM19.6733 14H20.1733V16H19.6733V14Z" fill="black" mask="url(#path-2-inside-1_5616_2210)"/>
<path d="M6.08082 10.2256C6.11475 10.1428 6.23193 10.1428 6.26586 10.2256L6.67421 11.2212C6.68857 11.2562 6.72148 11.2801 6.75923 11.283L7.83232 11.3637C7.92149 11.3704 7.9577 11.4818 7.8895 11.5397L7.06878 12.2357C7.03991 12.2602 7.02734 12.2989 7.03631 12.3356L7.29117 13.3812C7.31235 13.468 7.21755 13.5369 7.14146 13.4899L6.22589 12.9245C6.19368 12.9046 6.153 12.9046 6.12079 12.9245L5.20521 13.4899C5.12913 13.5369 5.03433 13.468 5.05551 13.3812L5.31037 12.3356C5.31934 12.2989 5.30677 12.2602 5.2779 12.2357L4.45718 11.5397C4.38898 11.4818 4.42518 11.3704 4.51436 11.3637L5.58745 11.283C5.6252 11.2801 5.65811 11.2562 5.67247 11.2212L6.08082 10.2256Z" fill="black"/>
<path d="M10.0808 10.2256C10.1148 10.1428 10.2319 10.1428 10.2659 10.2256L10.6742 11.2212C10.6886 11.2562 10.7215 11.2801 10.7592 11.283L11.8323 11.3637C11.9215 11.3704 11.9577 11.4818 11.8895 11.5397L11.0688 12.2357C11.0399 12.2602 11.0273 12.2989 11.0363 12.3356L11.2912 13.3812C11.3123 13.468 11.2176 13.5369 11.1415 13.4899L10.2259 12.9245C10.1937 12.9046 10.153 12.9046 10.1208 12.9245L9.20521 13.4899C9.12913 13.5369 9.03433 13.468 9.05551 13.3812L9.31037 12.3356C9.31934 12.2989 9.30677 12.2602 9.2779 12.2357L8.45718 11.5397C8.38898 11.4818 8.42518 11.3704 8.51436 11.3637L9.58745 11.283C9.6252 11.2801 9.65811 11.2562 9.67247 11.2212L10.0808 10.2256Z" fill="black"/>
<path d="M14.0808 10.2256C14.1148 10.1428 14.2319 10.1428 14.2659 10.2256L14.6742 11.2212C14.6886 11.2562 14.7215 11.2801 14.7592 11.283L15.8323 11.3637C15.9215 11.3704 15.9577 11.4818 15.8895 11.5397L15.0688 12.2357C15.0399 12.2602 15.0273 12.2989 15.0363 12.3356L15.2912 13.3812C15.3123 13.468 15.2176 13.5369 15.1415 13.4899L14.2259 12.9245C14.1937 12.9046 14.153 12.9046 14.1208 12.9245L13.2052 13.4899C13.1291 13.5369 13.0343 13.468 13.0555 13.3812L13.3104 12.3356C13.3193 12.2989 13.3068 12.2602 13.2779 12.2357L12.4572 11.5397C12.389 11.4818 12.4252 11.3704 12.5144 11.3637L13.5874 11.283C13.6252 11.2801 13.6581 11.2562 13.6725 11.2212L14.0808 10.2256Z" fill="black"/>
<path d="M18.6733 18.5V5.5H16.1733H21.1733M18.6733 18.5H21.1733M18.6733 18.5H16.1733" stroke="black"/>
</svg>
