<svg width="24" height="25" viewBox="0 0 24 25" fill="none" xmlns="http://www.w3.org/2000/svg">
<path d="M2 6.17383C2 5.06926 2.89543 4.17383 4 4.17383H19C20.1046 4.17383 21 5.06926 21 6.17383V11.8454C21 12.3758 20.7893 12.8845 20.4142 13.2596L16.5 17.1738L14.7903 18.8836C14.5988 19.0751 14.3703 19.2257 14.1188 19.3263L12.3576 20.0308C12.1214 20.1253 11.8693 20.1738 11.6148 20.1738H4C2.89543 20.1738 2 19.2784 2 18.1738V6.17383Z" fill="black" fill-opacity="0.3"/>
<path fill-rule="evenodd" clip-rule="evenodd" d="M4 5.17383H19C19.5523 5.17383 20 5.62154 20 6.17383V9.30857C20.0092 9.30406 20.0184 9.29965 20.0277 9.29536C20.2007 9.21512 20.3862 9.17383 20.5736 9.17383C20.7184 9.17383 20.8622 9.19853 21 9.24684V6.17383C21 5.06926 20.1046 4.17383 19 4.17383H4C2.89543 4.17383 2 5.06926 2 6.17383V18.1737V18.1738C2 19.2784 2.89543 20.1738 4 20.1738L11 20.1738V19.1738H4C3.51248 19.1738 3.10645 18.825 3.01792 18.3633C5.06873 16.3187 7.36378 14.1451 9.16432 12.4662C10.0884 11.6045 10.8815 10.8738 11.4435 10.3586C11.6597 10.1605 11.8416 9.9942 11.9837 9.86463L15.4638 13.3448L16.207 12.6737L12.3536 8.82027C12.1651 8.6318 11.8619 8.62431 11.6643 8.80324L12 9.17383C11.6643 8.80324 11.6643 8.80327 11.6643 8.80331L11.6641 8.80349L11.6633 8.80417L11.6604 8.80685L11.6488 8.81737L11.6033 8.85867L11.4272 9.0188C11.2736 9.1587 11.0496 9.36313 10.7678 9.62151C10.2041 10.1382 9.40885 10.8709 8.48235 11.7348C6.8768 13.2319 4.87491 15.1252 3 16.9731V6.17383C3 5.62154 3.44772 5.17383 4 5.17383ZM9 8.67383C9 8.94997 8.77614 9.17383 8.5 9.17383C8.22386 9.17383 8 8.94997 8 8.67383C8 8.39769 8.22386 8.17383 8.5 8.17383C8.77614 8.17383 9 8.39769 9 8.67383ZM8.5 10.1738C9.32843 10.1738 10 9.50226 10 8.67383C10 7.8454 9.32843 7.17383 8.5 7.17383C7.67157 7.17383 7 7.8454 7 8.67383C7 9.50226 7.67157 10.1738 8.5 10.1738Z" fill="black"/>
<path d="M19.9185 11.1171C20.0045 11.031 20.1066 10.9628 20.219 10.9162C20.3314 10.8697 20.4519 10.8457 20.5736 10.8457C20.6952 10.8457 20.8157 10.8697 20.9281 10.9162C21.0405 10.9628 21.1426 11.031 21.2286 11.1171C21.3147 11.2031 21.3829 11.3052 21.4295 11.4176C21.476 11.53 21.5 11.6505 21.5 11.7722C21.5 11.8938 21.476 12.0143 21.4295 12.1267C21.3829 12.2391 21.3147 12.3412 21.2286 12.4273L14.5141 19.1418L12.7126 19.6331L13.2039 17.8316L19.9185 11.1171Z" stroke="black" stroke-linecap="round" stroke-linejoin="round"/>
</svg>
