<svg width="24" height="24" viewBox="0 0 24 24" fill="none" xmlns="http://www.w3.org/2000/svg">
<path d="M5.90748 10.2256C5.94141 10.1428 6.05859 10.1428 6.09252 10.2256L6.50087 11.2212C6.51523 11.2562 6.54814 11.2801 6.58589 11.283L7.65898 11.3637C7.74815 11.3704 7.78436 11.4818 7.71616 11.5397L6.89544 12.2357C6.86657 12.2602 6.854 12.2989 6.86297 12.3356L7.11783 13.3812C7.13901 13.468 7.04421 13.5369 6.96813 13.4899L6.05255 12.9245C6.02034 12.9046 5.97966 12.9046 5.94745 12.9245L5.03188 13.4899C4.95579 13.5369 4.86099 13.468 4.88217 13.3812L5.13703 12.3356C5.146 12.2989 5.13343 12.2602 5.10456 12.2357L4.28384 11.5397C4.21564 11.4818 4.25185 11.3704 4.34102 11.3637L5.41411 11.283C5.45186 11.2801 5.48477 11.2562 5.49913 11.2212L5.90748 10.2256Z" fill="black"/>
<path d="M9.90748 10.2256C9.94141 10.1428 10.0586 10.1428 10.0925 10.2256L10.5009 11.2212C10.5152 11.2562 10.5481 11.2801 10.5859 11.283L11.659 11.3637C11.7482 11.3704 11.7844 11.4818 11.7162 11.5397L10.8954 12.2357C10.8666 12.2602 10.854 12.2989 10.863 12.3356L11.1178 13.3812C11.139 13.468 11.0442 13.5369 10.9681 13.4899L10.0525 12.9245C10.0203 12.9046 9.97966 12.9046 9.94745 12.9245L9.03188 13.4899C8.95579 13.5369 8.86099 13.468 8.88217 13.3812L9.13703 12.3356C9.146 12.2989 9.13343 12.2602 9.10456 12.2357L8.28384 11.5397C8.21564 11.4818 8.25185 11.3704 8.34102 11.3637L9.41411 11.283C9.45186 11.2801 9.48477 11.2562 9.49913 11.2212L9.90748 10.2256Z" fill="black"/>
<path d="M13.9075 10.2256C13.9414 10.1428 14.0586 10.1428 14.0925 10.2256L14.5009 11.2212C14.5152 11.2562 14.5481 11.2801 14.5859 11.283L15.659 11.3637C15.7482 11.3704 15.7844 11.4818 15.7162 11.5397L14.8954 12.2357C14.8666 12.2602 14.854 12.2989 14.863 12.3356L15.1178 13.3812C15.139 13.468 15.0442 13.5369 14.9681 13.4899L14.0525 12.9245C14.0203 12.9046 13.9797 12.9046 13.9475 12.9245L13.0319 13.4899C12.9558 13.5369 12.861 13.468 12.8822 13.3812L13.137 12.3356C13.146 12.2989 13.1334 12.2602 13.1046 12.2357L12.2838 11.5397C12.2156 11.4818 12.2518 11.3704 12.341 11.3637L13.4141 11.283C13.4519 11.2801 13.4848 11.2562 13.4991 11.2212L13.9075 10.2256Z" fill="black"/>
<path fill-rule="evenodd" clip-rule="evenodd" d="M17.5 16H4C2.89543 16 2 15.1046 2 14V10C2 8.89543 2.89543 8 4 8H17.5V9H4C3.44772 9 3 9.44772 3 10V14C3 14.5523 3.44772 15 4 15H17.5V16ZM19.5 15V16H20C21.1046 16 22 15.1046 22 14V10C22 8.89543 21.1046 8 20 8H19.5V9H20C20.5523 9 21 9.44772 21 10V14C21 14.5523 20.5523 15 20 15H19.5Z" fill="black"/>
<path d="M18.5 18.5V5.5H16H21M18.5 18.5H21M18.5 18.5H16" stroke="black"/>
</svg>
