<svg width="24" height="25" viewBox="0 0 24 25" fill="none"
    xmlns="http://www.w3.org/2000/svg">
    <circle cx="7" cy="5.17383" r="1.5" fill="black" fill-opacity="0.3" stroke="black"/>
    <path d="M5 14.6738H3.5V10.1738C3.5 9.3454 4.17157 8.67383 5 8.67383H9C9.82843 8.67383 10.5 9.3454 10.5 10.1738V14.6738H9H8.5V15.1738V20.1738C8.5 20.45 8.27614 20.6738 8 20.6738H6C5.72386 20.6738 5.5 20.45 5.5 20.1738V15.1738V14.6738H5Z" fill="black" fill-opacity="0.3" stroke="black"/>
    <circle cx="17" cy="5.17383" r="1.5" fill="black" fill-opacity="0.3" stroke="black"/>
    <path d="M15.5 14.6738H13.6629L15.0663 9.76175C15.2503 9.11779 15.8389 8.67383 16.5086 8.67383H17.4914C18.1611 8.67383 18.7497 9.11779 18.9337 9.76175L20.3371 14.6738H18.5H18V15.1738V20.1738C18 20.45 17.7761 20.6738 17.5 20.6738H16.5C16.2239 20.6738 16 20.45 16 20.1738V15.1738V14.6738H15.5Z" fill="black" fill-opacity="0.3" stroke="black"/>
</svg>
