<svg width="24" height="25" viewBox="0 0 24 25" fill="none" xmlns="http://www.w3.org/2000/svg">
<path d="M21.5 12.1738C21.5 17.4205 17.2467 21.6738 12 21.6738C6.75329 21.6738 2.5 17.4205 2.5 12.1738C2.5 6.92712 6.75329 2.67383 12 2.67383C17.2467 2.67383 21.5 6.92712 21.5 12.1738Z" fill="black" fill-opacity="0.3" stroke="black" stroke-linecap="round" stroke-linejoin="round"/>
<rect x="12" y="17.1738" width="1" height="2" rx="0.5" fill="black"/>
<path d="M8.3298 8.88203C8.55245 8.22605 8.94167 7.63914 9.45932 7.17879C9.97697 6.71843 10.6053 6.40041 11.2828 6.25587C11.9603 6.11132 12.6638 6.14521 13.3243 6.35422C13.9848 6.56322 14.5797 6.94017 15.0507 7.44816C15.5217 7.95615 15.8527 8.57775 16.0113 9.25209C16.1699 9.92644 16.1506 10.6304 15.9554 11.2951C15.7602 11.9597 15.3956 12.5623 14.8975 13.0437C14.4423 13.4837 14.2857 13.4932 13.9998 13.6743C13.7138 13.8553 12.5 14.1738 12.4999 14.6742" stroke="black" stroke-width="1.13505" stroke-linecap="round"/>
</svg>
