<svg width="24" height="24" viewBox="0 0 24 24" fill="none" xmlns="http://www.w3.org/2000/svg">
<path d="M21.5 12C21.5 17.2467 17.2467 21.5 12 21.5C6.75329 21.5 2.5 17.2467 2.5 12C2.5 6.75329 6.75329 2.5 12 2.5C17.2467 2.5 21.5 6.75329 21.5 12Z" stroke="black" stroke-linecap="round" stroke-linejoin="round"/>
<rect x="12" y="17" width="1" height="2" rx="0.5" fill="black"/>
<path d="M8.3298 8.7082C8.55245 8.05222 8.94167 7.46531 9.45932 7.00496C9.97697 6.5446 10.6053 6.22658 11.2828 6.08204C11.9603 5.93749 12.6638 5.97138 13.3243 6.18039C13.9848 6.38939 14.5797 6.76634 15.0507 7.27433C15.5217 7.78232 15.8527 8.40392 16.0113 9.07827C16.1699 9.75261 16.1506 10.4566 15.9554 11.1212C15.7602 11.7859 15.3956 12.3884 14.8975 12.8699C14.4423 13.3099 14.2857 13.3193 13.9998 13.5004C13.7138 13.6815 12.5 14 12.4999 14.5004" stroke="black" stroke-width="1.13505" stroke-linecap="round"/>
</svg>
