<svg width="24" height="24" viewBox="0 0 24 24" fill="none" xmlns="http://www.w3.org/2000/svg">
<path d="M18.5 8.22091V18C18.5 18.8284 17.8284 19.5 17 19.5H15H9H7C6.17157 19.5 5.5 18.8284 5.5 18V8.22092C5.5 7.79706 5.67932 7.39298 5.99363 7.10861L10.9936 2.5848C11.565 2.06787 12.435 2.06787 13.0064 2.5848L18.0064 7.10861C18.3207 7.39298 18.5 7.79706 18.5 8.22091Z" fill="black" fill-opacity="0.1" stroke="black" stroke-linejoin="round"/>
<path d="M2.5 10L10.7117 3.08486C11.4562 2.45796 12.5438 2.45796 13.2883 3.08486L21.5 10" stroke="black" stroke-linejoin="round"/>
<path d="M9.5 17V13C9.5 11.8954 10.3954 11 11.5 11H12.5C13.6046 11 14.5 11.8954 14.5 13V17" stroke="black" stroke-linejoin="round"/>
</svg>
