<svg width="24" height="24" viewBox="0 0 24 24" fill="none" xmlns="http://www.w3.org/2000/svg">
<path d="M5.77778 10.5H18.2222C18.8371 10.5 19.5 11.1524 19.5 12.1818V19.8182C19.5 20.8476 18.8371 21.5 18.2222 21.5H5.77778C5.16292 21.5 4.5 20.8476 4.5 19.8182V12.1818C4.5 11.1524 5.16292 10.5 5.77778 10.5Z" fill="black" fill-opacity="0.3" stroke="black" stroke-linecap="round" stroke-linejoin="round"/>
<mask id="path-2-inside-1_5662_2329" fill="white">
<path d="M7.19727 5.20792C7.42992 4.49403 7.86249 3.83672 8.46433 3.30175C9.40201 2.46825 10.6738 2 11.9999 2C13.3259 2 14.5977 2.46825 15.5354 3.30175C16.4731 4.13524 16.9999 5.2657 16.9999 6.44444V10.5"/>
</mask>
<path d="M8.46433 3.30175L9.12869 4.04916L9.12869 4.04916L8.46433 3.30175ZM15.9999 10.5C15.9999 11.0523 16.4476 11.5 16.9999 11.5C17.5521 11.5 17.9999 11.0523 17.9999 10.5H15.9999ZM6.24648 4.89806C6.07535 5.42316 6.36231 5.98757 6.88741 6.1587C7.41251 6.32983 7.97692 6.04288 8.14805 5.51777L6.24648 4.89806ZM9.12869 4.04916C9.87225 3.38822 10.9035 3 11.9999 3V1C10.4441 1 8.93177 1.54829 7.79997 2.55434L9.12869 4.04916ZM11.9999 3C13.0963 3 14.1275 3.38822 14.871 4.04916L16.1998 2.55434C15.068 1.54829 13.5556 1 11.9999 1V3ZM14.871 4.04916C15.6108 4.70669 15.9999 5.57148 15.9999 6.44444H17.9999C17.9999 4.95993 17.3354 3.5638 16.1998 2.55434L14.871 4.04916ZM15.9999 6.44444V10.5H17.9999V6.44444H15.9999ZM8.14805 5.51777C8.32325 4.98019 8.65332 4.47171 9.12869 4.04916L7.79997 2.55434C7.07166 3.20172 6.53659 4.00786 6.24648 4.89806L8.14805 5.51777Z" fill="black" mask="url(#path-2-inside-1_5662_2329)"/>
</svg>
