<svg width="24" height="24" viewBox="0 0 24 24" fill="none" xmlns="http://www.w3.org/2000/svg">
<path d="M5.77778 10.5H18.2222C18.8371 10.5 19.5 11.1524 19.5 12.1818V19.8182C19.5 20.8476 18.8371 21.5 18.2222 21.5H5.77778C5.16292 21.5 4.5 20.8476 4.5 19.8182V12.1818C4.5 11.1524 5.16292 10.5 5.77778 10.5Z" fill="black" fill-opacity="0.3" stroke="black" stroke-linecap="round" stroke-linejoin="round"/>
<mask id="path-2-inside-1_5662_2332" fill="white">
<path d="M7 10V6.44444C7 5.2657 7.52678 4.13524 8.46447 3.30175C9.40215 2.46825 10.6739 2 12 2C13.3261 2 14.5979 2.46825 15.5355 3.30175C16.4732 4.13524 17 5.2657 17 6.44444V10"/>
</mask>
<path d="M6 10C6 10.5523 6.44772 11 7 11C7.55228 11 8 10.5523 8 10H6ZM7 6.44444H6H7ZM16 10C16 10.5523 16.4477 11 17 11C17.5523 11 18 10.5523 18 10H16ZM8 10V6.44444H6V10H8ZM8 6.44444C8 5.57148 8.38911 4.70669 9.12883 4.04916L7.8001 2.55434C6.66446 3.5638 6 4.95993 6 6.44444L8 6.44444ZM9.12883 4.04916C9.87239 3.38822 10.9036 3 12 3V1C10.4442 1 8.93191 1.54829 7.8001 2.55434L9.12883 4.04916ZM12 3C13.0964 3 14.1276 3.38822 14.8712 4.04916L16.1999 2.55434C15.0681 1.54829 13.5558 1 12 1V3ZM14.8712 4.04916C15.6109 4.70669 16 5.57148 16 6.44444H18C18 4.95993 17.3355 3.5638 16.1999 2.55434L14.8712 4.04916ZM16 6.44444V10H18V6.44444H16Z" fill="black" mask="url(#path-2-inside-1_5662_2332)"/>
</svg>
