<svg width="24" height="25" viewBox="0 0 24 25" fill="none" xmlns="http://www.w3.org/2000/svg">
<path d="M12 21.6085C11.969 21.5917 11.9351 21.5731 11.8984 21.5528C11.6864 21.4354 11.3816 21.2602 11.015 21.0311C10.2807 20.5722 9.30381 19.9003 8.32925 19.0475C6.35913 17.3237 4.5 14.9506 4.5 12.1738V5.52033L12 2.70783L19.5 5.52033V12.1738C19.5 14.9506 17.6409 17.3237 15.6707 19.0475C14.6962 19.9003 13.7193 20.5722 12.985 21.0311C12.6184 21.2602 12.3136 21.4354 12.1016 21.5528C12.0649 21.5731 12.031 21.5917 12 21.6085Z" fill="black" fill-opacity="0.3" stroke="black" stroke-linecap="round" stroke-linejoin="round"/>
<path d="M12 16.1738V11.1738" stroke="black" stroke-linecap="round" stroke-linejoin="round"/>
<path d="M12 7.17383V8.17383" stroke="black" stroke-linecap="round"/>
</svg>
