<svg width="24" height="24" viewBox="0 0 24 24" fill="none" xmlns="http://www.w3.org/2000/svg">
<path d="M12 16V11" stroke="black" stroke-linecap="round" stroke-linejoin="round"/>
<path d="M12 7V8" stroke="black" stroke-linecap="round"/>
<path d="M12 21.4347C11.969 21.4179 11.9351 21.3993 11.8984 21.379C11.6864 21.2616 11.3816 21.0864 11.015 20.8573C10.2807 20.3983 9.30381 19.7264 8.32925 18.8737C6.35913 17.1499 4.5 14.7768 4.5 12V5.3465L12 2.534L19.5 5.3465V12C19.5 14.7768 17.6409 17.1499 15.6707 18.8737C14.6962 19.7264 13.7193 20.3983 12.985 20.8573C12.6184 21.0864 12.3136 21.2616 12.1016 21.379C12.0649 21.3993 12.031 21.4179 12 21.4347Z" stroke="black" stroke-linecap="round" stroke-linejoin="round"/>
</svg>
