<svg width="25" height="24" viewBox="0 0 25 24" fill="none" xmlns="http://www.w3.org/2000/svg">
<path d="M8.37375 19.7919C8.24599 19.736 8.10069 19.736 7.97293 19.7919L4.81342 21.1742C4.74735 21.2031 4.67334 21.1547 4.67334 21.0826V4C4.67334 3.17157 5.34491 2.5 6.17334 2.5H18.1733C19.0018 2.5 19.6733 3.17157 19.6733 4V21.0826C19.6733 21.1547 19.5993 21.2031 19.5333 21.1742L16.3737 19.7919C16.246 19.736 16.1007 19.736 15.9729 19.7919L12.2134 21.4367C12.1879 21.4479 12.1588 21.4479 12.1333 21.4367L8.37375 19.7919Z" fill="black" fill-opacity="0.3" stroke="black" stroke-linejoin="round"/>
<path d="M7.17334 6.5H17.1733" stroke="black"/>
<path d="M7.17334 10.5H17.1733" stroke="black"/>
<path d="M7.17334 14.5H17.1733" stroke="black"/>
</svg>
