<svg width="24" height="24" viewBox="0 0 24 24" fill="none" xmlns="http://www.w3.org/2000/svg">
<path d="M16.2004 19.7919C16.0726 19.736 15.9274 19.736 15.7996 19.7919L12.0401 21.4367C12.0145 21.4479 11.9855 21.4479 11.9599 21.4367L8.20041 19.7919C8.07265 19.736 7.92735 19.736 7.79959 19.7919L4.64008 21.1742C4.57401 21.2031 4.5 21.1547 4.5 21.0826V4C4.5 3.17157 5.17157 2.5 6 2.5H18C18.8284 2.5 19.5 3.17157 19.5 4V21.0826C19.5 21.1547 19.426 21.2031 19.3599 21.1742L16.2004 19.7919Z" stroke="black" stroke-linejoin="round"/>
<path d="M7 6.5H17" stroke="black"/>
<path d="M7 10.5H17" stroke="black"/>
<path d="M7 14.5H17" stroke="black"/>
</svg>
