<svg width="24" height="24" viewBox="0 0 24 24" fill="none" xmlns="http://www.w3.org/2000/svg">
<path d="M16.6897 5.51908L16.691 5.52004C18.4367 6.72798 19.5594 8.62909 19.7864 10.7258C19.7921 10.7924 19.7513 10.8507 19.6855 10.8672H19.6855H19.6854H19.6853H19.6852H19.6851H19.685H19.6849H19.6848H19.6846H19.6845H19.6844H19.6843H19.6842H19.6841H19.684H19.6839H19.6838H19.6837H19.6835H19.6834H19.6833H19.6832H19.6831H19.683H19.6829H19.6828H19.6827H19.6826H19.6825H19.6824H19.6822H19.6821H19.682H19.6819H19.6818H19.6817H19.6816H19.6815H19.6814H19.6813H19.6812H19.6811H19.681H19.6809H19.6808H19.6806H19.6805H19.6804H19.6803H19.6802H19.6801H19.68H19.6799H19.6798H19.6797H19.6796H19.6795H19.6794H19.6793H19.6792H19.6791H19.679H19.6789H19.6788H19.6787H19.6786H19.6785H19.6784H19.6783H19.6781H19.678H19.6779H19.6778H19.6777H19.6776H19.6775H19.6774H19.6773H19.6772H19.6771H19.677H19.6769H19.6768H19.6767H19.6766H19.6765H19.6764H19.6763H19.6762H19.6761H19.676H19.6759H19.6758H19.6757H19.6756H19.6755C19.6207 10.8672 19.5587 10.8231 19.5469 10.7477C19.3294 8.72314 18.2362 6.88866 16.5543 5.72452C16.4978 5.68372 16.4835 5.61034 16.5203 5.55159C16.5641 5.49406 16.6438 5.48709 16.6897 5.51908Z" stroke="black"/>
<path d="M4.74722 10.773L4.74709 10.773L4.7462 10.7843C4.74448 10.8061 4.73434 10.8291 4.71178 10.8494C4.68853 10.8702 4.6584 10.882 4.62798 10.882H4.62784H4.62769H4.62754H4.6274H4.62725H4.62711H4.62696H4.62682H4.62667H4.62653H4.62638H4.62624H4.62609H4.62595H4.62581H4.62566H4.62552H4.62537H4.62523H4.62509H4.62495H4.6248H4.62466H4.62452H4.62438H4.62424H4.62409H4.62395H4.62381H4.62367H4.62353H4.62339H4.62325H4.62311H4.62297H4.62283H4.62269H4.62255H4.62241H4.62227H4.62213H4.62199H4.62185H4.62171H4.62157H4.62143H4.62129H4.62116H4.62102H4.62088H4.62074H4.6206H4.62047H4.62033H4.62019H4.62006H4.61992H4.61978H4.61965H4.61951H4.61937H4.61924H4.6191H4.61896H4.61883H4.61869H4.61856H4.61842H4.61829H4.61815H4.61802H4.61788H4.61775H4.61761H4.61748H4.61734H4.61721H4.61708H4.61694H4.61681H4.61668H4.61654H4.61641H4.61628H4.61614H4.61601H4.61588H4.61574H4.61561H4.61548H4.61535H4.61522H4.61508H4.61495H4.61482H4.61469H4.61456H4.61443H4.61429H4.61416H4.61403H4.6139H4.61377H4.61364H4.61351H4.61338H4.61325H4.61312H4.61299H4.61286H4.61273H4.6126H4.61247H4.61234H4.61221H4.61208H4.61195H4.61182H4.61169H4.61156H4.61143H4.6113H4.61118H4.61105H4.61092H4.61079H4.61066H4.61053H4.61041H4.61028H4.61015H4.61002H4.60989H4.60977H4.60964H4.60951H4.60938H4.60926H4.60913H4.609H4.60888H4.60875H4.60862H4.60849H4.60837H4.60824H4.60811H4.60799H4.60786H4.60774H4.60761H4.60748H4.60736H4.60723H4.60711H4.60698H4.60685H4.60673H4.6066H4.60648H4.60635H4.60623H4.6061H4.60598H4.60585H4.60572H4.6056H4.60547H4.60535H4.60523H4.6051H4.60498H4.60485H4.60473H4.6046H4.60448H4.60435H4.60423H4.6041H4.60398H4.60386H4.60373H4.60361H4.60348H4.60336H4.60324H4.60311H4.60299H4.60287C4.53765 10.8645 4.49455 10.8011 4.50062 10.7388L4.00298 10.6903L4.50048 10.7402C4.7108 8.64482 5.82469 6.74956 7.55006 5.52349C7.60877 5.48236 7.68789 5.49704 7.72783 5.55363C7.7693 5.61238 7.75469 5.69177 7.69797 5.7318L7.98631 6.14029L7.6984 5.7315C6.03017 6.90644 4.95357 8.74534 4.74722 10.773Z" stroke="black"/>
<path d="M9 18L10.0272 18.1712C11.3334 18.3889 12.6666 18.3889 13.9728 18.1712L15 18" stroke="black" stroke-linecap="round"/>
<path d="M11.9417 7.38333C10.5928 7.38333 9.5 6.29052 9.5 4.94167C9.5 3.59281 10.5928 2.5 11.9417 2.5C13.2905 2.5 14.3833 3.59281 14.3833 4.94167C14.3833 6.2896 13.2831 7.38333 11.9417 7.38333ZM11.9417 2.75833C10.7322 2.75833 9.75 3.74052 9.75 4.95C9.75 6.15948 10.7322 7.14167 11.9417 7.14167C13.1511 7.14167 14.1333 6.15948 14.1333 4.95C14.1333 3.73892 13.1412 2.75833 11.9417 2.75833Z" stroke="black"/>
<path d="M5.94167 17.3833C4.59281 17.3833 3.5 16.2905 3.5 14.9417C3.5 13.6002 4.59373 12.5 5.94167 12.5C7.29052 12.5 8.38333 13.5928 8.38333 14.9417C8.38333 16.2831 7.2896 17.3833 5.94167 17.3833ZM5.94167 12.75C4.73219 12.75 3.75 13.7322 3.75 14.9417C3.75 16.1511 4.73219 17.1333 5.94167 17.1333C7.15114 17.1333 8.13333 16.1511 8.13333 14.9417C8.13333 13.7322 7.15114 12.75 5.94167 12.75Z" stroke="black"/>
<path d="M20.1334 14.9417L20.1333 14.9372C20.1226 13.7353 19.1552 12.75 17.9417 12.75C16.7322 12.75 15.75 13.7322 15.75 14.9417C15.75 16.1511 16.7322 17.1333 17.9417 17.1333C19.1511 17.1333 20.1333 16.1511 20.1334 14.9417ZM17.9417 17.3833C16.5928 17.3833 15.5 16.2905 15.5 14.9417C15.5 13.6002 16.5937 12.5 17.9417 12.5C19.2901 12.5 20.3826 13.5921 20.3833 14.9404C20.3757 16.2847 19.2794 17.3833 17.9417 17.3833Z" stroke="black"/>
</svg>
