<svg width="24" height="24" viewBox="0 0 24 24" fill="none" xmlns="http://www.w3.org/2000/svg">
<circle cx="10" cy="12" r="7.5" fill="black" fill-opacity="0.1" stroke="black"/>
<mask id="path-2-inside-1_5643_2306" fill="white">
<path d="M14.6086 10.3592C14.8453 10.2137 14.9208 9.90245 14.7574 9.67772C14.0476 8.70143 13.0777 7.93917 11.9539 7.48099C10.8301 7.02282 9.60366 6.88967 8.41362 7.09142C8.13968 7.13787 7.97604 7.41312 8.04352 7.68265C8.111 7.95219 8.3841 8.11355 8.65867 8.07099C9.64034 7.91886 10.6483 8.03534 11.574 8.41273C12.4997 8.79012 13.3018 9.41161 13.8973 10.2067C14.0639 10.4291 14.3719 10.5047 14.6086 10.3592Z"/>
</mask>
<path d="M14.6086 10.3592C14.8453 10.2137 14.9208 9.90245 14.7574 9.67772C14.0476 8.70143 13.0777 7.93917 11.9539 7.48099C10.8301 7.02282 9.60366 6.88967 8.41362 7.09142C8.13968 7.13787 7.97604 7.41312 8.04352 7.68265C8.111 7.95219 8.3841 8.11355 8.65867 8.07099C9.64034 7.91886 10.6483 8.03534 11.574 8.41273C12.4997 8.79012 13.3018 9.41161 13.8973 10.2067C14.0639 10.4291 14.3719 10.5047 14.6086 10.3592Z" stroke="black" stroke-width="2" mask="url(#path-2-inside-1_5643_2306)"/>
<path d="M20.7428 20.4287C20.9795 20.5708 21.2867 20.494 21.4287 20.2572C21.5708 20.0205 21.494 19.7133 21.2572 19.5713L20.7428 20.4287ZM16.2572 16.5713L15.8285 16.314L15.314 17.1715L15.7428 17.4287L16.2572 16.5713ZM21.2572 19.5713L16.2572 16.5713L15.7428 17.4287L20.7428 20.4287L21.2572 19.5713Z" fill="black"/>
</svg>
