<svg width="24" height="24" viewBox="0 0 24 24" fill="none" xmlns="http://www.w3.org/2000/svg">
<g style="mix-blend-mode:multiply">
<path d="M7.5 12C7.5 10.6193 6.38071 9.5 5 9.5C3.61929 9.5 2.5 10.6193 2.5 12C2.5 13.3807 3.61929 14.5 5 14.5C6.38071 14.5 7.5 13.3807 7.5 12Z" stroke="black"/>
</g>
<g style="mix-blend-mode:multiply">
<path d="M19.5 6C19.5 4.61929 18.3807 3.5 17 3.5C15.6193 3.5 14.5 4.61929 14.5 6C14.5 7.38071 15.6193 8.5 17 8.5C18.3807 8.5 19.5 7.38071 19.5 6Z" stroke="black"/>
</g>
<g style="mix-blend-mode:multiply">
<path d="M19.5 18C19.5 16.6193 18.3807 15.5 17 15.5C15.6193 15.5 14.5 16.6193 14.5 18C14.5 19.3807 15.6193 20.5 17 20.5C18.3807 20.5 19.5 19.3807 19.5 18Z" stroke="black"/>
</g>
<path d="M7.49951 10.499L14.4995 7.49902" stroke="black" stroke-linecap="round"/>
<path d="M7.49951 13.499L14.4995 16.499" stroke="black" stroke-linecap="round"/>
</svg>
