<svg width="24" height="25" viewBox="0 0 24 25" fill="none" xmlns="http://www.w3.org/2000/svg">
<path d="M12.4592 3.50433L14.2801 7.7326C14.4973 8.23687 14.9726 8.5822 15.5193 8.6329L20.1033 9.05806C20.5402 9.09858 20.7167 9.64198 20.3871 9.93156L16.9284 12.9699C16.516 13.3323 16.3344 13.891 16.4551 14.4266L17.4673 18.9177C17.5638 19.3457 17.1015 19.6815 16.7243 19.4575L12.7658 17.1071C12.2938 16.8268 11.7062 16.8268 11.2342 17.1071L7.27572 19.4575C6.89846 19.6815 6.43621 19.3457 6.53268 18.9177L7.54487 14.4266C7.66558 13.891 7.48403 13.3323 7.07155 12.9699L3.61291 9.93156C3.28328 9.64198 3.45985 9.09858 3.89673 9.05806L8.48074 8.6329C9.02743 8.5822 9.50273 8.23687 9.71989 7.7326L11.5408 3.50433C11.7143 3.10135 12.2857 3.10135 12.4592 3.50433Z" fill="black" fill-opacity="0.3" stroke="black"/>
</svg>
