<svg width="24" height="25" viewBox="0 0 24 25" fill="none" xmlns="http://www.w3.org/2000/svg">
<path d="M19.5 12.1738C19.5 14.3782 18.3296 16.3307 16.8464 17.9149C15.3677 19.4943 13.6292 20.6521 12.6127 21.2585C12.2299 21.4868 11.7701 21.4868 11.3873 21.2585C10.3708 20.6521 8.63227 19.4943 7.1536 17.9149C5.67037 16.3307 4.5 14.3782 4.5 12.1738V5.83323C4.5 5.63143 4.61807 5.45422 4.79884 5.37794C5.65795 5.01543 7.29664 4.33177 8.82118 3.73929C9.58408 3.4428 10.3132 3.1712 10.8996 2.97439C11.1932 2.87585 11.4453 2.79803 11.6448 2.7454C11.7446 2.7191 11.8267 2.7003 11.8915 2.68836C11.9236 2.68243 11.9492 2.67861 11.9688 2.67634C11.9785 2.67523 11.986 2.67457 11.9915 2.67421L11.9978 2.67388L11.9994 2.67384C11.9997 2.67383 11.9997 2.67383 11.9997 2.67383C11.9996 2.67383 11.9996 2.67383 11.9999 2.67383C11.9999 2.67383 12 2.67383 12 2.67383C12.0004 2.67383 11.9997 2.67382 12.0001 2.67383C12.0006 2.67383 12 2.67382 12.0006 2.67384L12.0022 2.67388L12.0085 2.67421C12.014 2.67457 12.0215 2.67523 12.0312 2.67634C12.0508 2.67861 12.0764 2.68243 12.1085 2.68836C12.1733 2.7003 12.2554 2.7191 12.3552 2.7454C12.5547 2.79803 12.8068 2.87585 13.1004 2.97439C13.6868 3.1712 14.4159 3.4428 15.1788 3.73929C16.7034 4.33177 18.342 5.01543 19.2012 5.37794C19.3819 5.45422 19.5 5.63143 19.5 5.83323V12.1738Z" fill="black" fill-opacity="0.3" stroke="black" stroke-linecap="round" stroke-linejoin="round"/>
<circle cx="12" cy="9.17383" r="2" stroke="black"/>
<path d="M17.3946 16.1738C16.3572 14.3804 14.4182 13.1738 12.1973 13.1738C9.97646 13.1738 8.03743 14.3804 7 16.1738" stroke="black"/>
</svg>
