<svg width="24" height="24" viewBox="0 0 24 24" fill="none" xmlns="http://www.w3.org/2000/svg">
<path d="M12 13.7917C11.9699 13.7917 11.9386 13.7794 11.9129 13.7537C11.8873 13.7281 11.875 13.6968 11.875 13.6667V9.5C11.875 9.46985 11.8873 9.43857 11.9129 9.41293C11.9386 9.38728 11.9699 9.375 12 9.375C12.0301 9.375 12.0614 9.38728 12.0871 9.41293C12.1127 9.43857 12.125 9.46985 12.125 9.5V13.6667C12.125 13.6968 12.1127 13.7281 12.0871 13.7537C12.0614 13.7794 12.0301 13.7917 12 13.7917Z" stroke="black"/>
<path d="M11.875 16.47L11.9068 16.4859C11.9112 16.4881 11.9141 16.4893 11.9157 16.4898C11.9402 16.4933 11.9584 16.4958 11.9748 16.4977C11.9914 16.4995 11.9987 16.4998 11.9998 16.4998C11.9999 16.4998 11.9999 16.4998 11.9998 16.4998C11.9997 16.4998 11.9997 16.4998 11.9999 16.4998C12.001 16.4998 12.0078 16.4995 12.0217 16.4979C12.0369 16.4961 12.0548 16.4935 12.076 16.4899L12.0874 16.488L12.0875 16.4882C12.0879 16.4881 12.0882 16.4881 12.0884 16.488C12.0892 16.4877 12.0907 16.487 12.0929 16.4859L12.1247 16.47L12.1584 16.4588C12.1601 16.4582 12.1659 16.4561 12.1757 16.4505L12.2466 16.3937C12.303 16.3249 12.3332 16.2393 12.3332 16.1665C12.3332 16.0936 12.303 16.008 12.2466 15.9392L12.2167 15.9152L12.1757 15.8824C12.1659 15.8768 12.1601 15.8747 12.1584 15.8741L12.1247 15.8629L12.0929 15.847L11.875 16.47ZM11.875 16.47L11.8413 16.4588C11.8395 16.4582 11.8338 16.4561 11.824 16.4505L11.7531 16.3937C11.6967 16.3249 11.6665 16.2393 11.6665 16.1665C11.6665 16.0936 11.6967 16.008 11.7531 15.9392L11.824 15.8824C11.8338 15.8768 11.8395 15.8747 11.8413 15.8741L11.875 15.8629L11.9068 15.847C11.9121 15.8443 11.9154 15.8432 11.9166 15.8428L11.9306 15.8405L11.9456 15.837C11.9831 15.8283 12.0195 15.8305 12.0369 15.8349L12.0619 15.8411L12.0875 15.8448C12.0879 15.8448 12.0882 15.8449 12.0884 15.8449L11.875 16.47Z" stroke="black"/>
<path d="M9.15061 4.56796L9.15068 4.56782C9.93195 3.16154 10.9424 2.5 11.9636 2.5C12.9848 2.5 13.9952 3.16153 14.7765 4.56779C14.7765 4.5678 14.7765 4.56781 14.7765 4.56782L19.8265 13.6595L19.8265 13.6595C20.5627 14.9846 20.5979 16.1539 20.0837 17.0281C19.5676 17.8891 18.5224 18.4333 17.0136 18.4333H6.9136C5.40498 18.4333 4.36054 17.8893 3.84426 17.021C3.3366 16.1533 3.3655 14.9746 4.10061 13.6513C4.10063 13.6512 4.10066 13.6512 4.10068 13.6512L9.15061 4.56796ZM9.3693 4.68852L9.368 4.69085L4.32686 13.7816C4.32677 13.7817 4.32668 13.7819 4.32659 13.7821C3.71882 14.8727 3.54653 16.0083 4.06447 16.9009C4.58645 17.8005 5.6771 18.1917 6.92194 18.1917H17.0219C18.2704 18.1917 19.3474 17.7987 19.8771 16.9049C20.4088 16.0076 20.2221 14.8761 19.6179 13.7831L19.6172 13.7819L14.5589 4.69024L14.5579 4.68852C13.917 3.54725 13.0186 2.75 11.9636 2.75C10.9086 2.75 10.0102 3.54725 9.3693 4.68852Z" stroke="black"/>
</svg>
