<svg width="24" height="24" viewBox="0 0 24 24" fill="none" xmlns="http://www.w3.org/2000/svg">
<circle cx="12" cy="12" r="9.5" stroke="black" stroke-linejoin="round"/>
<path d="M15.5 12C15.5 14.7141 15.059 17.1482 14.3642 18.8854C14.0162 19.7553 13.6144 20.4258 13.1937 20.8706C12.7741 21.3143 12.3705 21.5 12 21.5C11.6295 21.5 11.2259 21.3143 10.8063 20.8706C10.3856 20.4258 9.98379 19.7553 9.63581 18.8854C8.94095 17.1482 8.5 14.7141 8.5 12C8.5 9.2859 8.94095 6.85177 9.63581 5.11463C9.98379 4.24467 10.3856 3.5742 10.8063 3.1294C11.2259 2.68566 11.6295 2.5 12 2.5C12.3705 2.5 12.7741 2.68566 13.1937 3.1294C13.6144 3.5742 14.0162 4.24467 14.3642 5.11463C15.059 6.85177 15.5 9.2859 15.5 12Z" stroke="black" stroke-linejoin="round"/>
<path d="M22 12H2" stroke="black"/>
</svg>
