<svg width="25" height="24" viewBox="0 0 25 24" fill="none" xmlns="http://www.w3.org/2000/svg">
<circle cx="12.1733" cy="12" r="9.5" fill="black" fill-opacity="0.3" stroke="black" stroke-linejoin="round"/>
<path d="M15.6733 12C15.6733 14.7141 15.2324 17.1482 14.5375 18.8854C14.1895 19.7553 13.7877 20.4258 13.367 20.8706C12.9474 21.3143 12.5438 21.5 12.1733 21.5C11.8028 21.5 11.3993 21.3143 10.9796 20.8706C10.559 20.4258 10.1571 19.7553 9.80915 18.8854C9.11429 17.1482 8.67334 14.7141 8.67334 12C8.67334 9.2859 9.11429 6.85177 9.80915 5.11463C10.1571 4.24467 10.559 3.5742 10.9796 3.1294C11.3993 2.68566 11.8028 2.5 12.1733 2.5C12.5438 2.5 12.9474 2.68566 13.367 3.1294C13.7877 3.5742 14.1895 4.24467 14.5375 5.11463C15.2324 6.85177 15.6733 9.2859 15.6733 12Z" stroke="black" stroke-linejoin="round"/>
<path d="M22.1733 12H2.17334" stroke="black"/>
</svg>
